<svg id="svg" version="1.1" xmlns="http://www.w3.org/2000/svg" xmlns:xlink="http://www.w3.org/1999/xlink" width="400" height="287.53056234718827" viewBox="0, 0, 400,287.53056234718827"><g id="svgg"><path id="path0" d="M14.195 3.882 C 14.343 4.270,13.546 4.500,12.581 4.347 C 12.462 4.329,12.365 4.572,12.365 4.889 C 12.365 5.272,12.173 5.464,11.790 5.464 C 11.471 5.464,11.215 5.655,11.215 5.895 C 11.215 6.132,11.021 6.326,10.784 6.326 C 10.401 6.326,10.352 16.743,10.352 98.347 C 10.352 179.950,10.401 190.367,10.784 190.367 C 11.021 190.367,11.215 190.561,11.215 190.798 C 11.215 191.038,11.471 191.229,11.790 191.229 C 12.110 191.229,12.365 191.421,12.365 191.661 C 12.365 192.019,12.924 192.092,15.672 192.092 C 18.420 192.092,18.979 192.019,18.979 191.661 C 18.979 191.421,19.235 191.229,19.554 191.229 C 19.874 191.229,20.129 191.038,20.129 190.798 C 20.129 190.561,20.324 190.367,20.561 190.367 C 20.800 190.367,20.992 190.111,20.992 189.792 C 20.992 189.408,21.184 189.216,21.567 189.216 C 21.887 189.216,22.142 189.025,22.142 188.785 C 22.142 188.548,22.336 188.354,22.574 188.354 C 22.813 188.354,23.005 188.098,23.005 187.779 C 23.005 187.459,23.197 187.203,23.436 187.203 C 23.674 187.203,23.868 187.009,23.868 186.772 C 23.868 186.532,24.123 186.341,24.443 186.341 C 24.762 186.341,25.018 186.149,25.018 185.909 C 25.018 185.672,25.212 185.478,25.449 185.478 C 25.689 185.478,25.881 185.222,25.881 184.903 C 25.881 184.520,26.072 184.328,26.456 184.328 C 26.775 184.328,27.031 184.136,27.031 183.896 C 27.031 183.659,27.225 183.465,27.462 183.465 C 27.702 183.465,27.894 183.210,27.894 182.890 C 27.894 182.570,28.085 182.315,28.325 182.315 C 28.562 182.315,28.756 182.121,28.756 181.884 C 28.756 181.644,29.012 181.452,29.331 181.452 C 29.651 181.452,29.907 181.260,29.907 181.021 C 29.907 180.784,30.101 180.590,30.338 180.590 C 30.578 180.590,30.769 180.334,30.769 180.014 C 30.769 179.631,30.961 179.439,31.344 179.439 C 31.664 179.439,31.919 179.248,31.919 179.008 C 31.919 178.771,32.114 178.577,32.351 178.577 C 32.590 178.577,32.782 178.321,32.782 178.001 C 32.782 177.682,32.974 177.426,33.214 177.426 C 33.451 177.426,33.645 177.232,33.645 176.995 C 33.645 176.755,33.900 176.564,34.220 176.564 C 34.539 176.564,34.795 176.372,34.795 176.132 C 34.795 175.895,34.989 175.701,35.226 175.701 C 35.466 175.701,35.658 175.445,35.658 175.126 C 35.658 174.742,35.850 174.551,36.233 174.551 C 36.552 174.551,36.808 174.359,36.808 174.119 C 36.808 173.882,37.002 173.688,37.239 173.688 C 37.479 173.688,37.671 173.432,37.671 173.113 C 37.671 172.793,37.862 172.538,38.102 172.538 C 38.339 172.538,38.533 172.344,38.533 172.106 C 38.533 171.867,38.789 171.675,39.109 171.675 C 39.428 171.675,39.684 171.483,39.684 171.244 C 39.684 171.006,39.878 170.812,40.115 170.812 C 40.355 170.812,40.546 170.557,40.546 170.237 C 40.546 169.854,40.738 169.662,41.121 169.662 C 41.441 169.662,41.697 169.470,41.697 169.231 C 41.697 168.994,41.891 168.799,42.128 168.799 C 42.368 168.799,42.559 168.544,42.559 168.224 C 42.559 167.905,42.751 167.649,42.991 167.649 C 43.228 167.649,43.422 167.455,43.422 167.218 C 43.422 166.978,43.678 166.786,43.997 166.786 C 44.317 166.786,44.572 166.595,44.572 166.355 C 44.572 166.118,44.766 165.924,45.004 165.924 C 45.243 165.924,45.435 165.668,45.435 165.349 C 45.435 164.965,45.627 164.774,46.010 164.774 C 46.330 164.774,46.585 164.582,46.585 164.342 C 46.585 164.105,46.779 163.911,47.017 163.911 C 47.256 163.911,47.448 163.655,47.448 163.336 C 47.448 163.016,47.640 162.761,47.879 162.761 C 48.116 162.761,48.311 162.566,48.311 162.329 C 48.311 162.090,48.566 161.898,48.886 161.898 C 49.205 161.898,49.461 161.706,49.461 161.467 C 49.461 161.229,49.655 161.035,49.892 161.035 C 50.132 161.035,50.324 160.780,50.324 160.460 C 50.324 160.077,50.515 159.885,50.899 159.885 C 51.218 159.885,51.474 159.693,51.474 159.454 C 51.474 159.216,51.668 159.022,51.905 159.022 C 52.145 159.022,52.336 158.767,52.336 158.447 C 52.336 158.128,52.528 157.872,52.768 157.872 C 53.005 157.872,53.199 157.678,53.199 157.441 C 53.199 157.201,53.455 157.009,53.774 157.009 C 54.094 157.009,54.349 156.818,54.349 156.578 C 54.349 156.341,54.543 156.147,54.781 156.147 C 55.020 156.147,55.212 155.891,55.212 155.572 C 55.212 155.188,55.404 154.996,55.787 154.996 C 56.107 154.996,56.362 154.805,56.362 154.565 C 56.362 154.328,56.556 154.134,56.794 154.134 C 57.033 154.134,57.225 153.878,57.225 153.559 C 57.225 153.239,57.417 152.983,57.656 152.983 C 57.894 152.983,58.088 152.789,58.088 152.552 C 58.088 152.312,58.343 152.121,58.663 152.121 C 58.982 152.121,59.238 151.929,59.238 151.689 C 59.238 151.452,59.432 151.258,59.669 151.258 C 59.909 151.258,60.101 151.002,60.101 150.683 C 60.101 150.300,60.292 150.108,60.676 150.108 C 60.995 150.108,61.251 149.916,61.251 149.676 C 61.251 149.439,61.445 149.245,61.682 149.245 C 61.922 149.245,62.114 148.990,62.114 148.670 C 62.114 148.351,62.305 148.095,62.545 148.095 C 62.782 148.095,62.976 147.901,62.976 147.664 C 62.976 147.424,63.232 147.232,63.551 147.232 C 63.871 147.232,64.127 147.040,64.127 146.801 C 64.127 146.564,64.321 146.370,64.558 146.370 C 64.798 146.370,64.989 146.114,64.989 145.794 C 64.989 145.411,65.181 145.219,65.564 145.219 C 65.884 145.219,66.139 145.028,66.139 144.788 C 66.139 144.551,66.334 144.357,66.571 144.357 C 66.810 144.357,67.002 144.101,67.002 143.781 C 67.002 143.462,67.194 143.206,67.434 143.206 C 67.671 143.206,67.865 143.012,67.865 142.775 C 67.865 142.535,68.120 142.344,68.440 142.344 C 68.823 142.344,69.015 142.152,69.015 141.769 C 69.015 141.449,69.207 141.193,69.446 141.193 C 69.684 141.193,69.878 140.999,69.878 140.762 C 69.878 140.522,70.133 140.331,70.453 140.331 C 70.772 140.331,71.028 140.139,71.028 139.899 C 71.028 139.662,71.222 139.468,71.459 139.468 C 71.699 139.468,71.891 139.212,71.891 138.893 C 71.891 138.573,72.082 138.318,72.322 138.318 C 72.559 138.318,72.753 138.124,72.753 137.886 C 72.753 137.647,73.009 137.455,73.329 137.455 C 73.712 137.455,73.904 137.263,73.904 136.880 C 73.904 136.560,74.095 136.305,74.335 136.305 C 74.572 136.305,74.766 136.111,74.766 135.873 C 74.766 135.634,75.022 135.442,75.341 135.442 C 75.661 135.442,75.917 135.250,75.917 135.011 C 75.917 134.774,76.111 134.579,76.348 134.579 C 76.588 134.579,76.779 134.324,76.779 134.004 C 76.779 133.685,76.971 133.429,77.211 133.429 C 77.448 133.429,77.642 133.235,77.642 132.998 C 77.642 132.758,77.898 132.566,78.217 132.566 C 78.601 132.566,78.792 132.375,78.792 131.991 C 78.792 131.672,78.984 131.416,79.224 131.416 C 79.461 131.416,79.655 131.222,79.655 130.985 C 79.655 130.745,79.911 130.554,80.230 130.554 C 80.550 130.554,80.805 130.362,80.805 130.122 C 80.805 129.885,80.999 129.691,81.237 129.691 C 81.476 129.691,81.668 129.435,81.668 129.116 C 81.668 128.796,81.860 128.541,82.099 128.541 C 82.336 128.541,82.531 128.347,82.531 128.109 C 82.531 127.870,82.786 127.678,83.106 127.678 C 83.489 127.678,83.681 127.486,83.681 127.103 C 83.681 126.783,83.873 126.528,84.112 126.528 C 84.349 126.528,84.543 126.334,84.543 126.096 C 84.543 125.857,84.799 125.665,85.119 125.665 C 85.438 125.665,85.694 125.473,85.694 125.234 C 85.694 124.996,85.888 124.802,86.125 124.802 C 86.365 124.802,86.556 124.547,86.556 124.227 C 86.556 123.908,86.748 123.652,86.988 123.652 C 87.225 123.652,87.419 123.458,87.419 123.221 C 87.419 122.981,87.675 122.789,87.994 122.789 C 88.378 122.789,88.569 122.598,88.569 122.214 C 88.569 121.895,88.761 121.639,89.001 121.639 C 89.238 121.639,89.432 121.445,89.432 121.208 C 89.432 120.968,89.688 120.776,90.007 120.776 C 90.327 120.776,90.582 120.585,90.582 120.345 C 90.582 120.108,90.776 119.914,91.014 119.914 C 91.253 119.914,91.445 119.658,91.445 119.339 C 91.445 119.019,91.637 118.763,91.876 118.763 C 92.114 118.763,92.308 118.569,92.308 118.332 C 92.308 118.092,92.563 117.901,92.883 117.901 C 93.266 117.901,93.458 117.709,93.458 117.326 C 93.458 117.006,93.650 116.751,93.889 116.751 C 94.127 116.751,94.321 116.556,94.321 116.319 C 94.321 116.080,94.576 115.888,94.896 115.888 C 95.215 115.888,95.471 115.696,95.471 115.457 C 95.471 115.219,95.665 115.025,95.902 115.025 C 96.142 115.025,96.334 114.770,96.334 114.450 C 96.334 114.131,96.525 113.875,96.765 113.875 C 97.002 113.875,97.196 113.681,97.196 113.444 C 97.196 113.204,97.452 113.012,97.771 113.012 C 98.155 113.012,98.347 112.821,98.347 112.437 C 98.347 112.118,98.538 111.862,98.778 111.862 C 99.015 111.862,99.209 111.668,99.209 111.431 C 99.209 111.191,99.465 110.999,99.784 110.999 C 100.104 110.999,100.359 110.808,100.359 110.568 C 100.359 110.331,100.554 110.137,100.791 110.137 C 101.030 110.137,101.222 109.881,101.222 109.561 C 101.222 109.242,101.414 108.986,101.653 108.986 C 101.891 108.986,102.085 108.792,102.085 108.555 C 102.085 108.315,102.340 108.124,102.660 108.124 C 103.043 108.124,103.235 107.932,103.235 107.549 C 103.235 107.229,103.427 106.973,103.666 106.973 C 103.904 106.973,104.098 106.779,104.098 106.542 C 104.098 106.302,104.353 106.111,104.673 106.111 C 104.992 106.111,105.248 105.919,105.248 105.679 C 105.248 105.442,105.442 105.248,105.679 105.248 C 105.919 105.248,106.111 104.992,106.111 104.673 C 106.111 104.353,106.302 104.098,106.542 104.098 C 106.779 104.098,106.973 103.904,106.973 103.666 C 106.973 103.427,107.229 103.235,107.549 103.235 C 107.932 103.235,108.124 103.043,108.124 102.660 C 108.124 102.340,108.315 102.085,108.555 102.085 C 108.839 102.085,108.986 101.801,108.986 101.256 C 108.986 100.668,109.154 100.383,109.561 100.276 C 110.442 100.046,110.442 95.471,109.561 95.471 C 109.178 95.471,108.986 95.279,108.986 94.896 C 108.986 94.576,108.795 94.321,108.555 94.321 C 108.318 94.321,108.124 94.127,108.124 93.889 C 108.124 93.650,107.868 93.458,107.549 93.458 C 107.165 93.458,106.973 93.266,106.973 92.883 C 106.973 92.563,106.782 92.308,106.542 92.308 C 106.305 92.308,106.111 92.114,106.111 91.876 C 106.111 91.639,105.917 91.445,105.679 91.445 C 105.442 91.445,105.248 91.251,105.248 91.014 C 105.248 90.774,104.992 90.582,104.673 90.582 C 104.289 90.582,104.098 90.391,104.098 90.007 C 104.098 89.688,103.906 89.432,103.666 89.432 C 103.429 89.432,103.235 89.238,103.235 89.001 C 103.235 88.761,102.979 88.569,102.660 88.569 C 102.277 88.569,102.085 88.378,102.085 87.994 C 102.085 87.675,101.893 87.419,101.653 87.419 C 101.416 87.419,101.222 87.225,101.222 86.988 C 101.222 86.751,101.028 86.556,100.791 86.556 C 100.554 86.556,100.359 86.362,100.359 86.125 C 100.359 85.885,100.104 85.694,99.784 85.694 C 99.401 85.694,99.209 85.502,99.209 85.119 C 99.209 84.799,99.017 84.543,98.778 84.543 C 98.541 84.543,98.347 84.349,98.347 84.112 C 98.347 83.873,98.091 83.681,97.771 83.681 C 97.388 83.681,97.196 83.489,97.196 83.106 C 97.196 82.786,97.005 82.531,96.765 82.531 C 96.528 82.531,96.334 82.336,96.334 82.099 C 96.334 81.862,96.139 81.668,95.902 81.668 C 95.665 81.668,95.471 81.474,95.471 81.237 C 95.471 80.997,95.215 80.805,94.896 80.805 C 94.512 80.805,94.321 80.613,94.321 80.230 C 94.321 79.911,94.129 79.655,93.889 79.655 C 93.652 79.655,93.458 79.461,93.458 79.224 C 93.458 78.984,93.202 78.792,92.883 78.792 C 92.499 78.792,92.308 78.601,92.308 78.217 C 92.308 77.898,92.116 77.642,91.876 77.642 C 91.639 77.642,91.445 77.448,91.445 77.211 C 91.445 76.973,91.251 76.779,91.014 76.779 C 90.776 76.779,90.582 76.585,90.582 76.348 C 90.582 76.108,90.327 75.917,90.007 75.917 C 89.624 75.917,89.432 75.725,89.432 75.341 C 89.432 75.022,89.240 74.766,89.001 74.766 C 88.763 74.766,88.569 74.572,88.569 74.335 C 88.569 74.095,88.314 73.904,87.994 73.904 C 87.611 73.904,87.419 73.712,87.419 73.329 C 87.419 73.009,87.227 72.753,86.988 72.753 C 86.751 72.753,86.556 72.559,86.556 72.322 C 86.556 72.085,86.362 71.891,86.125 71.891 C 85.888 71.891,85.694 71.697,85.694 71.459 C 85.694 71.220,85.438 71.028,85.119 71.028 C 84.735 71.028,84.543 70.836,84.543 70.453 C 84.543 70.133,84.352 69.878,84.112 69.878 C 83.875 69.878,83.681 69.684,83.681 69.446 C 83.681 69.207,83.425 69.015,83.106 69.015 C 82.722 69.015,82.531 68.823,82.531 68.440 C 82.531 68.120,82.339 67.865,82.099 67.865 C 81.862 67.865,81.668 67.671,81.668 67.434 C 81.668 67.196,81.474 67.002,81.237 67.002 C 80.999 67.002,80.805 66.808,80.805 66.571 C 80.805 66.331,80.550 66.139,80.230 66.139 C 79.847 66.139,79.655 65.948,79.655 65.564 C 79.655 65.245,79.463 64.989,79.224 64.989 C 78.986 64.989,78.792 64.795,78.792 64.558 C 78.792 64.318,78.537 64.127,78.217 64.127 C 77.834 64.127,77.642 63.935,77.642 63.551 C 77.642 63.232,77.450 62.976,77.211 62.976 C 76.973 62.976,76.779 62.782,76.779 62.545 C 76.779 62.308,76.585 62.114,76.348 62.114 C 76.111 62.114,75.917 61.919,75.917 61.682 C 75.917 61.443,75.661 61.251,75.341 61.251 C 74.958 61.251,74.766 61.059,74.766 60.676 C 74.766 60.356,74.575 60.101,74.335 60.101 C 74.098 60.101,73.904 59.907,73.904 59.669 C 73.904 59.430,73.648 59.238,73.329 59.238 C 72.935 59.238,72.753 59.046,72.753 58.632 C 72.753 58.212,72.621 58.077,72.322 58.192 C 72.029 58.304,71.891 58.176,71.891 57.791 C 71.891 57.480,71.697 57.225,71.459 57.225 C 71.222 57.225,71.028 57.031,71.028 56.794 C 71.028 56.554,70.772 56.362,70.453 56.362 C 70.069 56.362,69.878 56.171,69.878 55.787 C 69.878 55.468,69.686 55.212,69.446 55.212 C 69.209 55.212,69.015 55.018,69.015 54.781 C 69.015 54.541,68.759 54.349,68.440 54.349 C 68.047 54.349,67.865 54.158,67.865 53.743 C 67.865 53.323,67.733 53.188,67.434 53.303 C 67.140 53.416,67.002 53.288,67.002 52.903 C 67.002 52.591,66.808 52.336,66.571 52.336 C 66.334 52.336,66.139 52.142,66.139 51.905 C 66.139 51.665,65.884 51.474,65.564 51.474 C 65.181 51.474,64.989 51.282,64.989 50.899 C 64.989 50.579,64.798 50.324,64.558 50.324 C 64.321 50.324,64.127 50.129,64.127 49.892 C 64.127 49.653,63.871 49.461,63.551 49.461 C 63.158 49.461,62.976 49.269,62.976 48.855 C 62.976 48.435,62.844 48.300,62.545 48.415 C 62.252 48.527,62.114 48.399,62.114 48.014 C 62.114 47.702,61.920 47.448,61.682 47.448 C 61.445 47.448,61.251 47.254,61.251 47.017 C 61.251 46.777,60.995 46.585,60.676 46.585 C 60.292 46.585,60.101 46.393,60.101 46.010 C 60.101 45.691,59.909 45.435,59.669 45.435 C 59.432 45.435,59.238 45.241,59.238 45.004 C 59.238 44.764,58.982 44.572,58.663 44.572 C 58.270 44.572,58.088 44.381,58.088 43.966 C 58.088 43.546,57.956 43.411,57.656 43.526 C 57.363 43.639,57.225 43.510,57.225 43.125 C 57.225 42.814,57.031 42.559,56.794 42.559 C 56.556 42.559,56.362 42.365,56.362 42.128 C 56.362 41.888,56.107 41.697,55.787 41.697 C 55.404 41.697,55.212 41.505,55.212 41.121 C 55.212 40.802,55.020 40.546,54.781 40.546 C 54.543 40.546,54.349 40.352,54.349 40.115 C 54.349 39.875,54.094 39.684,53.774 39.684 C 53.381 39.684,53.199 39.492,53.199 39.078 C 53.199 38.657,53.067 38.523,52.768 38.637 C 52.474 38.750,52.336 38.622,52.336 38.237 C 52.336 37.925,52.142 37.671,51.905 37.671 C 51.668 37.671,51.474 37.477,51.474 37.239 C 51.474 37.000,51.218 36.808,50.899 36.808 C 50.515 36.808,50.324 36.616,50.324 36.233 C 50.324 35.913,50.132 35.658,49.892 35.658 C 49.655 35.658,49.461 35.464,49.461 35.226 C 49.461 34.987,49.205 34.795,48.886 34.795 C 48.493 34.795,48.311 34.603,48.311 34.189 C 48.311 33.769,48.179 33.634,47.879 33.749 C 47.586 33.861,47.448 33.733,47.448 33.348 C 47.448 33.037,47.254 32.782,47.017 32.782 C 46.779 32.782,46.585 32.588,46.585 32.351 C 46.585 32.111,46.330 31.919,46.010 31.919 C 45.627 31.919,45.435 31.728,45.435 31.344 C 45.435 31.025,45.243 30.769,45.004 30.769 C 44.766 30.769,44.572 30.575,44.572 30.338 C 44.572 30.098,44.317 29.907,43.997 29.907 C 43.604 29.907,43.422 29.715,43.422 29.301 C 43.422 28.880,43.290 28.745,42.991 28.860 C 42.697 28.973,42.559 28.845,42.559 28.460 C 42.559 28.148,42.365 27.894,42.128 27.894 C 41.891 27.894,41.697 27.699,41.697 27.462 C 41.697 27.223,41.441 27.031,41.121 27.031 C 40.738 27.031,40.546 26.839,40.546 26.456 C 40.546 26.136,40.355 25.881,40.115 25.881 C 39.878 25.881,39.684 25.687,39.684 25.449 C 39.684 25.210,39.428 25.018,39.109 25.018 C 38.715 25.018,38.533 24.826,38.533 24.412 C 38.533 23.992,38.401 23.857,38.102 23.972 C 37.809 24.084,37.671 23.956,37.671 23.571 C 37.671 23.260,37.477 23.005,37.239 23.005 C 37.002 23.005,36.808 22.811,36.808 22.574 C 36.808 22.334,36.552 22.142,36.233 22.142 C 35.850 22.142,35.658 21.951,35.658 21.567 C 35.658 21.248,35.466 20.992,35.226 20.992 C 34.989 20.992,34.795 20.798,34.795 20.561 C 34.795 20.321,34.539 20.129,34.220 20.129 C 33.827 20.129,33.645 19.938,33.645 19.524 C 33.645 19.103,33.513 18.968,33.214 19.083 C 32.920 19.196,32.782 19.068,32.782 18.683 C 32.782 18.371,32.588 18.116,32.351 18.116 C 32.114 18.116,31.919 17.922,31.919 17.685 C 31.919 17.445,31.664 17.254,31.344 17.254 C 30.961 17.254,30.769 17.062,30.769 16.679 C 30.769 16.359,30.578 16.104,30.338 16.104 C 30.101 16.104,29.907 15.909,29.907 15.672 C 29.907 15.433,29.651 15.241,29.331 15.241 C 28.943 15.241,28.756 15.049,28.756 14.649 C 28.756 14.302,28.629 14.135,28.449 14.246 C 28.280 14.351,28.071 14.165,27.984 13.832 C 27.898 13.500,27.648 13.228,27.429 13.228 C 27.210 13.228,27.031 13.034,27.031 12.797 C 27.031 12.557,26.775 12.365,26.456 12.365 C 26.072 12.365,25.881 12.173,25.881 11.790 C 25.881 11.471,25.689 11.215,25.449 11.215 C 25.212 11.215,25.018 11.021,25.018 10.784 C 25.018 10.544,24.762 10.352,24.443 10.352 C 24.059 10.352,23.868 10.161,23.868 9.777 C 23.868 9.458,23.676 9.202,23.436 9.202 C 23.199 9.202,23.005 9.008,23.005 8.771 C 23.005 8.533,22.811 8.339,22.574 8.339 C 22.336 8.339,22.142 8.145,22.142 7.908 C 22.142 7.668,21.887 7.477,21.567 7.477 C 21.184 7.477,20.992 7.285,20.992 6.902 C 20.992 6.582,20.800 6.326,20.561 6.326 C 20.324 6.326,20.129 6.132,20.129 5.895 C 20.129 5.655,19.874 5.464,19.554 5.464 C 19.171 5.464,18.979 5.272,18.979 4.889 C 18.979 4.572,18.882 4.329,18.763 4.347 C 17.971 4.473,17.254 4.252,17.254 3.882 C 17.254 3.550,16.883 3.451,15.641 3.451 C 14.326 3.451,14.060 3.530,14.195 3.882 M215.672 13.659 C 215.672 14.052,214.991 14.238,214.019 14.112 C 213.821 14.086,213.659 14.330,213.659 14.653 C 213.659 14.984,213.471 15.241,213.228 15.241 C 212.991 15.241,212.797 15.435,212.797 15.672 C 212.797 15.919,212.538 16.104,212.191 16.104 C 211.755 16.104,211.634 16.232,211.760 16.561 C 211.878 16.867,211.744 17.070,211.360 17.170 C 211.043 17.253,210.784 17.500,210.784 17.719 C 210.784 17.937,210.605 18.116,210.386 18.116 C 210.167 18.116,209.920 18.376,209.837 18.693 C 209.737 19.077,209.534 19.211,209.229 19.093 C 208.899 18.967,208.771 19.087,208.771 19.524 C 208.771 19.870,208.586 20.129,208.339 20.129 C 208.102 20.129,207.908 20.324,207.908 20.561 C 207.908 20.808,207.649 20.992,207.302 20.992 C 206.866 20.992,206.745 21.120,206.872 21.450 C 206.989 21.756,206.856 21.958,206.471 22.059 C 206.154 22.142,205.895 22.388,205.895 22.607 C 205.895 22.826,205.716 23.005,205.497 23.005 C 205.278 23.005,205.032 23.264,204.949 23.581 C 204.848 23.966,204.646 24.099,204.340 23.982 C 204.010 23.855,203.882 23.976,203.882 24.412 C 203.882 24.759,203.698 25.018,203.451 25.018 C 203.214 25.018,203.019 25.212,203.019 25.449 C 203.019 25.696,202.760 25.881,202.414 25.881 C 201.977 25.881,201.857 26.009,201.983 26.339 C 202.101 26.644,201.967 26.847,201.583 26.947 C 201.266 27.030,201.006 27.277,201.006 27.496 C 201.006 27.715,200.827 27.894,200.609 27.894 C 200.390 27.894,200.143 28.153,200.060 28.470 C 199.960 28.854,199.757 28.988,199.451 28.870 C 199.122 28.744,198.994 28.865,198.994 29.301 C 198.994 29.648,198.809 29.907,198.562 29.907 C 198.325 29.907,198.131 30.101,198.131 30.338 C 198.131 30.585,197.872 30.769,197.525 30.769 C 197.089 30.769,196.968 30.898,197.095 31.227 C 197.212 31.533,197.079 31.735,196.694 31.836 C 196.377 31.919,196.118 32.166,196.118 32.384 C 196.118 32.603,195.939 32.782,195.720 32.782 C 195.501 32.782,195.254 33.042,195.172 33.358 C 195.071 33.743,194.868 33.876,194.563 33.759 C 194.233 33.633,194.105 33.753,194.105 34.189 C 194.105 34.536,193.921 34.795,193.674 34.795 C 193.436 34.795,193.242 34.989,193.242 35.226 C 193.242 35.473,192.983 35.658,192.636 35.658 C 192.200 35.658,192.080 35.786,192.206 36.116 C 192.323 36.421,192.190 36.624,191.806 36.724 C 191.489 36.807,191.229 37.054,191.229 37.273 C 191.229 37.492,191.044 37.671,190.817 37.671 C 190.591 37.671,190.325 37.923,190.228 38.231 C 190.120 38.570,189.885 38.729,189.633 38.632 C 189.350 38.523,189.216 38.667,189.216 39.078 C 189.216 39.425,189.032 39.684,188.785 39.684 C 188.548 39.684,188.354 39.878,188.354 40.115 C 188.354 40.355,188.098 40.546,187.779 40.546 C 187.395 40.546,187.203 40.738,187.203 41.121 C 187.203 41.441,187.012 41.697,186.772 41.697 C 186.535 41.697,186.341 41.891,186.341 42.128 C 186.341 42.365,186.147 42.559,185.909 42.559 C 185.529 42.559,185.359 42.883,185.434 43.464 C 185.448 43.567,185.204 43.584,184.893 43.503 C 184.463 43.390,184.328 43.500,184.328 43.964 C 184.328 44.313,184.144 44.572,183.896 44.572 C 183.659 44.572,183.465 44.766,183.465 45.004 C 183.465 45.243,183.210 45.435,182.890 45.435 C 182.507 45.435,182.315 45.627,182.315 46.010 C 182.315 46.330,182.123 46.585,181.884 46.585 C 181.646 46.585,181.452 46.779,181.452 47.017 C 181.452 47.254,181.258 47.448,181.021 47.448 C 180.640 47.448,180.470 47.772,180.546 48.353 C 180.559 48.455,180.315 48.473,180.005 48.391 C 179.574 48.279,179.439 48.389,179.439 48.852 C 179.439 49.201,179.255 49.461,179.008 49.461 C 178.771 49.461,178.577 49.655,178.577 49.892 C 178.577 50.132,178.321 50.324,178.001 50.324 C 177.618 50.324,177.426 50.515,177.426 50.899 C 177.426 51.218,177.235 51.474,176.995 51.474 C 176.758 51.474,176.564 51.653,176.564 51.872 C 176.564 52.090,176.288 52.341,175.951 52.430 C 175.566 52.530,175.398 52.744,175.498 53.006 C 175.613 53.304,175.502 53.381,175.104 53.277 C 174.687 53.168,174.551 53.282,174.551 53.741 C 174.551 54.090,174.367 54.349,174.119 54.349 C 173.882 54.349,173.688 54.543,173.688 54.781 C 173.688 55.020,173.432 55.212,173.113 55.212 C 172.729 55.212,172.538 55.404,172.538 55.787 C 172.538 56.107,172.346 56.362,172.106 56.362 C 171.869 56.362,171.675 56.541,171.675 56.760 C 171.675 56.979,171.399 57.230,171.063 57.318 C 170.677 57.419,170.509 57.632,170.610 57.894 C 170.724 58.193,170.613 58.269,170.216 58.165 C 169.798 58.056,169.662 58.170,169.662 58.629 C 169.662 58.979,169.478 59.238,169.231 59.238 C 168.994 59.238,168.799 59.432,168.799 59.669 C 168.799 59.909,168.544 60.101,168.224 60.101 C 167.841 60.101,167.649 60.292,167.649 60.676 C 167.649 60.995,167.457 61.251,167.218 61.251 C 166.981 61.251,166.786 61.430,166.786 61.649 C 166.786 61.867,166.511 62.119,166.174 62.207 C 165.788 62.308,165.621 62.521,165.721 62.783 C 165.836 63.081,165.725 63.158,165.327 63.054 C 164.909 62.945,164.774 63.059,164.774 63.518 C 164.774 63.867,164.590 64.127,164.342 64.127 C 164.105 64.127,163.911 64.321,163.911 64.558 C 163.911 64.798,163.655 64.989,163.336 64.989 C 162.952 64.989,162.761 65.181,162.761 65.564 C 162.761 65.884,162.569 66.139,162.329 66.139 C 162.092 66.139,161.898 66.318,161.898 66.537 C 161.898 66.756,161.622 67.007,161.285 67.095 C 160.900 67.196,160.732 67.409,160.833 67.671 C 160.947 67.970,160.836 68.046,160.439 67.943 C 160.021 67.833,159.885 67.947,159.885 68.406 C 159.885 68.756,159.701 69.015,159.454 69.015 C 159.216 69.015,159.022 69.209,159.022 69.446 C 159.022 69.686,158.767 69.878,158.447 69.878 C 158.064 69.878,157.872 70.069,157.872 70.453 C 157.872 70.772,157.680 71.028,157.441 71.028 C 157.203 71.028,157.009 71.207,157.009 71.426 C 157.009 71.645,156.734 71.896,156.397 71.984 C 156.011 72.085,155.844 72.298,155.944 72.560 C 156.059 72.858,155.947 72.935,155.550 72.831 C 155.132 72.722,154.996 72.836,154.996 73.295 C 154.996 73.644,154.813 73.904,154.565 73.904 C 154.328 73.904,154.134 74.098,154.134 74.335 C 154.134 74.575,153.878 74.766,153.559 74.766 C 153.175 74.766,152.983 74.958,152.983 75.341 C 152.983 75.661,152.792 75.917,152.552 75.917 C 152.315 75.917,152.121 76.111,152.121 76.348 C 152.121 76.596,151.861 76.779,151.512 76.779 C 151.059 76.779,150.939 76.917,151.044 77.318 C 151.153 77.732,151.061 77.824,150.647 77.716 C 150.245 77.611,150.108 77.730,150.108 78.184 C 150.108 78.533,149.924 78.792,149.676 78.792 C 149.439 78.792,149.245 78.986,149.245 79.224 C 149.245 79.463,148.990 79.655,148.670 79.655 C 148.287 79.655,148.095 79.847,148.095 80.230 C 148.095 80.550,147.903 80.805,147.664 80.805 C 147.426 80.805,147.232 80.999,147.232 81.237 C 147.232 81.484,146.973 81.668,146.624 81.668 C 146.170 81.668,146.051 81.805,146.156 82.207 C 146.264 82.621,146.172 82.713,145.758 82.604 C 145.357 82.499,145.219 82.619,145.219 83.072 C 145.219 83.421,145.035 83.681,144.788 83.681 C 144.551 83.681,144.357 83.875,144.357 84.112 C 144.357 84.352,144.101 84.543,143.781 84.543 C 143.398 84.543,143.206 84.735,143.206 85.119 C 143.206 85.438,143.015 85.694,142.775 85.694 C 142.538 85.694,142.344 85.888,142.344 86.125 C 142.344 86.373,142.084 86.556,141.735 86.556 C 141.282 86.556,141.162 86.694,141.267 87.095 C 141.376 87.509,141.284 87.601,140.869 87.493 C 140.468 87.388,140.331 87.507,140.331 87.961 C 140.331 88.310,140.147 88.569,139.899 88.569 C 139.662 88.569,139.468 88.763,139.468 89.001 C 139.468 89.240,139.212 89.432,138.893 89.432 C 138.509 89.432,138.318 89.624,138.318 90.007 C 138.318 90.327,138.126 90.582,137.886 90.582 C 137.649 90.582,137.455 90.776,137.455 91.014 C 137.455 91.261,137.196 91.445,136.846 91.445 C 136.393 91.445,136.274 91.582,136.379 91.984 C 136.487 92.398,136.395 92.490,135.981 92.381 C 135.580 92.277,135.442 92.396,135.442 92.849 C 135.442 93.199,135.258 93.458,135.011 93.458 C 134.774 93.458,134.579 93.652,134.579 93.889 C 134.579 94.129,134.324 94.321,134.004 94.321 C 133.621 94.321,133.429 94.512,133.429 94.896 C 133.429 95.215,133.237 95.471,132.998 95.471 C 132.761 95.471,132.566 95.665,132.566 95.902 C 132.566 96.150,132.307 96.334,131.958 96.334 C 131.504 96.334,131.385 96.471,131.490 96.872 C 131.598 97.287,131.507 97.378,131.092 97.270 C 130.639 97.152,130.554 97.294,130.554 98.169 C 130.554 98.902,130.426 99.209,130.122 99.209 C 129.883 99.209,129.691 99.465,129.691 99.784 C 129.691 100.168,129.499 100.359,129.116 100.359 C 128.796 100.359,128.541 100.551,128.541 100.791 C 128.541 101.028,128.347 101.222,128.109 101.222 C 127.872 101.222,127.678 101.401,127.678 101.620 C 127.678 101.839,127.419 102.085,127.103 102.168 C 126.786 102.251,126.528 102.525,126.528 102.777 C 126.528 103.029,126.334 103.235,126.096 103.235 C 125.859 103.235,125.665 103.429,125.665 103.666 C 125.665 103.904,125.471 104.098,125.234 104.098 C 124.994 104.098,124.802 104.353,124.802 104.673 C 124.802 105.056,124.611 105.248,124.227 105.248 C 123.908 105.248,123.652 105.440,123.652 105.679 C 123.652 105.917,123.458 106.111,123.221 106.111 C 122.983 106.111,122.789 106.290,122.789 106.509 C 122.789 106.727,122.531 106.974,122.214 107.057 C 121.898 107.139,121.639 107.413,121.639 107.665 C 121.639 107.917,121.445 108.124,121.208 108.124 C 120.971 108.124,120.776 108.318,120.776 108.555 C 120.776 108.792,120.582 108.986,120.345 108.986 C 120.105 108.986,119.914 109.242,119.914 109.561 C 119.914 109.945,119.722 110.137,119.339 110.137 C 119.019 110.137,118.763 110.328,118.763 110.568 C 118.763 110.805,118.569 110.999,118.332 110.999 C 118.095 110.999,117.901 111.178,117.901 111.397 C 117.901 111.616,117.642 111.863,117.326 111.945 C 117.009 112.028,116.751 112.302,116.751 112.554 C 116.751 112.806,116.556 113.012,116.319 113.012 C 116.082 113.012,115.888 113.206,115.888 113.444 C 115.888 113.681,115.694 113.875,115.457 113.875 C 115.217 113.875,115.025 114.131,115.025 114.450 C 115.025 114.833,114.833 115.025,114.450 115.025 C 114.131 115.025,113.875 115.217,113.875 115.457 C 113.875 115.694,113.681 115.888,113.444 115.888 C 113.206 115.888,113.012 116.067,113.012 116.286 C 113.012 116.504,112.753 116.751,112.437 116.834 C 112.121 116.917,111.862 117.190,111.862 117.443 C 111.862 117.695,111.668 117.901,111.431 117.901 C 111.193 117.901,110.999 118.095,110.999 118.332 C 110.999 118.569,110.805 118.763,110.568 118.763 C 110.328 118.763,110.137 119.019,110.137 119.339 C 110.137 119.722,109.945 119.914,109.561 119.914 C 109.242 119.914,108.986 120.105,108.986 120.345 C 108.986 120.582,108.792 120.776,108.555 120.776 C 108.318 120.776,108.124 120.955,108.124 121.174 C 108.124 121.393,107.865 121.640,107.549 121.722 C 107.232 121.805,106.973 122.079,106.973 122.331 C 106.973 122.583,106.779 122.789,106.542 122.789 C 106.305 122.789,106.111 122.983,106.111 123.221 C 106.111 123.458,105.917 123.652,105.679 123.652 C 105.440 123.652,105.248 123.908,105.248 124.227 C 105.248 124.611,105.056 124.802,104.673 124.802 C 104.353 124.802,104.098 124.994,104.098 125.234 C 104.098 125.471,103.904 125.665,103.666 125.665 C 103.429 125.665,103.235 125.844,103.235 126.063 C 103.235 126.282,102.976 126.528,102.660 126.611 C 102.344 126.694,102.085 126.968,102.085 127.220 C 102.085 127.472,101.891 127.678,101.653 127.678 C 101.416 127.678,101.222 127.872,101.222 128.109 C 101.222 128.347,101.028 128.541,100.791 128.541 C 100.551 128.541,100.359 128.796,100.359 129.116 C 100.359 129.499,100.168 129.691,99.784 129.691 C 99.465 129.691,99.209 129.883,99.209 130.122 C 99.209 130.359,99.015 130.554,98.778 130.554 C 98.541 130.554,98.347 130.739,98.347 130.966 C 98.347 131.192,98.088 131.460,97.771 131.560 C 97.455 131.660,97.196 131.928,97.196 132.155 C 97.196 132.381,97.002 132.566,96.765 132.566 C 96.528 132.566,96.334 132.761,96.334 132.998 C 96.334 133.235,96.139 133.429,95.902 133.429 C 95.663 133.429,95.471 133.685,95.471 134.004 C 95.471 134.388,95.279 134.579,94.896 134.579 C 94.576 134.579,94.321 134.771,94.321 135.011 C 94.321 135.248,94.127 135.442,93.889 135.442 C 93.652 135.442,93.458 135.628,93.458 135.854 C 93.458 136.081,93.199 136.348,92.883 136.449 C 92.566 136.549,92.308 136.817,92.308 137.043 C 92.308 137.270,92.129 137.455,91.910 137.455 C 91.691 137.455,91.441 137.727,91.354 138.059 C 91.267 138.392,91.058 138.578,90.889 138.474 C 90.710 138.363,90.582 138.530,90.582 138.876 C 90.582 139.276,90.396 139.468,90.007 139.468 C 89.688 139.468,89.432 139.660,89.432 139.899 C 89.432 140.137,89.238 140.331,89.001 140.331 C 88.761 140.331,88.569 140.586,88.569 140.906 C 88.569 141.289,88.378 141.481,87.994 141.481 C 87.675 141.481,87.419 141.673,87.419 141.912 C 87.419 142.150,87.240 142.344,87.021 142.344 C 86.803 142.344,86.552 142.615,86.466 142.948 C 86.379 143.280,86.170 143.467,86.001 143.362 C 85.821 143.251,85.694 143.418,85.694 143.764 C 85.694 144.165,85.508 144.357,85.119 144.357 C 84.799 144.357,84.543 144.548,84.543 144.788 C 84.543 145.025,84.349 145.219,84.112 145.219 C 83.873 145.219,83.681 145.475,83.681 145.794 C 83.681 146.188,83.489 146.370,83.075 146.370 C 82.654 146.370,82.520 146.502,82.635 146.801 C 82.745 147.089,82.623 147.232,82.268 147.232 C 81.968 147.232,81.666 147.497,81.577 147.836 C 81.490 148.169,81.281 148.355,81.112 148.251 C 80.933 148.140,80.805 148.307,80.805 148.653 C 80.805 149.053,80.619 149.245,80.230 149.245 C 79.911 149.245,79.655 149.437,79.655 149.676 C 79.655 149.914,79.461 150.108,79.224 150.108 C 78.984 150.108,78.792 150.363,78.792 150.683 C 78.792 151.076,78.601 151.258,78.186 151.258 C 77.766 151.258,77.631 151.390,77.746 151.689 C 77.856 151.977,77.734 152.121,77.379 152.121 C 77.080 152.121,76.777 152.385,76.688 152.725 C 76.601 153.057,76.393 153.244,76.224 153.139 C 76.044 153.028,75.917 153.195,75.917 153.542 C 75.917 153.942,75.730 154.134,75.341 154.134 C 75.022 154.134,74.766 154.325,74.766 154.565 C 74.766 154.802,74.572 154.996,74.335 154.996 C 74.095 154.996,73.904 155.252,73.904 155.572 C 73.904 155.965,73.712 156.147,73.298 156.147 C 72.877 156.147,72.743 156.279,72.857 156.578 C 72.968 156.866,72.846 157.009,72.490 157.009 C 72.191 157.009,71.889 157.274,71.800 157.613 C 71.713 157.946,71.504 158.132,71.335 158.028 C 71.155 157.917,71.028 158.084,71.028 158.430 C 71.028 158.831,70.842 159.022,70.453 159.022 C 70.133 159.022,69.878 159.214,69.878 159.454 C 69.878 159.691,69.684 159.885,69.446 159.885 C 69.207 159.885,69.015 160.141,69.015 160.460 C 69.015 160.853,68.823 161.035,68.409 161.035 C 67.989 161.035,67.854 161.167,67.969 161.467 C 68.081 161.760,67.953 161.898,67.568 161.898 C 67.197 161.898,67.002 162.093,67.002 162.464 C 67.002 162.849,66.864 162.977,66.571 162.865 C 66.272 162.750,66.139 162.885,66.139 163.305 C 66.139 163.719,65.957 163.911,65.564 163.911 C 65.245 163.911,64.989 164.103,64.989 164.342 C 64.989 164.579,64.795 164.774,64.558 164.774 C 64.318 164.774,64.127 165.029,64.127 165.349 C 64.127 165.742,63.935 165.924,63.521 165.924 C 63.100 165.924,62.965 166.056,63.080 166.355 C 63.193 166.649,63.065 166.786,62.680 166.786 C 62.308 166.786,62.114 166.981,62.114 167.353 C 62.114 167.738,61.976 167.866,61.682 167.753 C 61.383 167.638,61.251 167.773,61.251 168.194 C 61.251 168.608,61.069 168.799,60.676 168.799 C 60.356 168.799,60.101 168.991,60.101 169.231 C 60.101 169.468,59.907 169.662,59.669 169.662 C 59.430 169.662,59.238 169.918,59.238 170.237 C 59.238 170.630,59.046 170.812,58.632 170.812 C 58.212 170.812,58.077 170.944,58.192 171.244 C 58.304 171.537,58.176 171.675,57.791 171.675 C 57.420 171.675,57.225 171.870,57.225 172.241 C 57.225 172.626,57.087 172.754,56.794 172.642 C 56.494 172.527,56.362 172.662,56.362 173.082 C 56.362 173.496,56.180 173.688,55.787 173.688 C 55.468 173.688,55.212 173.880,55.212 174.119 C 55.212 174.357,55.018 174.551,54.781 174.551 C 54.541 174.551,54.349 174.806,54.349 175.126 C 54.349 175.519,54.158 175.701,53.743 175.701 C 53.323 175.701,53.188 175.833,53.303 176.132 C 53.416 176.426,53.288 176.564,52.903 176.564 C 52.531 176.564,52.336 176.758,52.336 177.130 C 52.336 177.515,52.199 177.643,51.905 177.530 C 51.606 177.415,51.474 177.550,51.474 177.971 C 51.474 178.385,51.292 178.577,50.899 178.577 C 50.579 178.577,50.324 178.768,50.324 179.008 C 50.324 179.245,50.129 179.439,49.892 179.439 C 49.653 179.439,49.461 179.695,49.461 180.014 C 49.461 180.408,49.269 180.590,48.855 180.590 C 48.435 180.590,48.300 180.722,48.415 181.021 C 48.527 181.314,48.399 181.452,48.014 181.452 C 47.643 181.452,47.448 181.647,47.448 182.018 C 47.448 182.403,47.310 182.531,47.017 182.419 C 46.717 182.304,46.585 182.439,46.585 182.859 C 46.585 183.273,46.403 183.465,46.010 183.465 C 45.691 183.465,45.435 183.657,45.435 183.896 C 45.435 184.134,45.241 184.328,45.004 184.328 C 44.764 184.328,44.572 184.583,44.572 184.903 C 44.572 185.296,44.381 185.478,43.966 185.478 C 43.546 185.478,43.411 185.610,43.526 185.909 C 43.639 186.203,43.510 186.341,43.125 186.341 C 42.754 186.341,42.559 186.535,42.559 186.907 C 42.559 187.292,42.421 187.420,42.128 187.307 C 41.829 187.193,41.697 187.327,41.697 187.748 C 41.697 188.162,41.515 188.354,41.121 188.354 C 40.802 188.354,40.546 188.545,40.546 188.785 C 40.546 189.022,40.352 189.216,40.115 189.216 C 39.875 189.216,39.684 189.472,39.684 189.792 C 39.684 190.185,39.492 190.367,39.078 190.367 C 38.657 190.367,38.523 190.499,38.637 190.798 C 38.750 191.091,38.622 191.229,38.237 191.229 C 37.865 191.229,37.671 191.424,37.671 191.795 C 37.671 192.180,37.533 192.309,37.239 192.196 C 36.940 192.081,36.808 192.216,36.808 192.636 C 36.808 193.051,36.626 193.242,36.233 193.242 C 35.913 193.242,35.658 193.434,35.658 193.674 C 35.658 193.911,35.464 194.105,35.226 194.105 C 34.987 194.105,34.795 194.361,34.795 194.680 C 34.795 195.073,34.603 195.255,34.189 195.255 C 33.769 195.255,33.634 195.387,33.749 195.687 C 33.861 195.980,33.733 196.118,33.348 196.118 C 32.977 196.118,32.782 196.313,32.782 196.684 C 32.782 197.069,32.644 197.197,32.351 197.085 C 32.052 196.970,31.919 197.105,31.919 197.525 C 31.919 197.939,31.738 198.131,31.344 198.131 C 31.025 198.131,30.769 198.323,30.769 198.562 C 30.769 198.799,30.575 198.994,30.338 198.994 C 30.098 198.994,29.907 199.249,29.907 199.569 C 29.907 199.962,29.715 200.144,29.301 200.144 C 28.880 200.144,28.745 200.276,28.860 200.575 C 28.973 200.869,28.845 201.006,28.460 201.006 C 27.928 201.006,27.894 201.217,27.894 204.457 C 27.894 207.698,27.928 207.908,28.460 207.908 C 28.845 207.908,28.973 208.046,28.860 208.339 C 28.745 208.639,28.880 208.771,29.301 208.771 C 29.715 208.771,29.907 208.953,29.907 209.346 C 29.907 209.665,30.098 209.921,30.338 209.921 C 30.575 209.921,30.769 210.115,30.769 210.352 C 30.769 210.592,31.025 210.784,31.344 210.784 C 31.664 210.784,31.919 210.975,31.919 211.215 C 31.919 211.452,32.114 211.646,32.351 211.646 C 32.590 211.646,32.782 211.902,32.782 212.221 C 32.782 212.602,32.974 212.797,33.348 212.797 C 33.733 212.797,33.861 212.934,33.749 213.228 C 33.634 213.527,33.769 213.659,34.189 213.659 C 34.603 213.659,34.795 213.841,34.795 214.234 C 34.795 214.554,34.987 214.809,35.226 214.809 C 35.464 214.809,35.658 215.004,35.658 215.241 C 35.658 215.480,35.913 215.672,36.233 215.672 C 36.552 215.672,36.808 215.864,36.808 216.104 C 36.808 216.341,37.002 216.535,37.239 216.535 C 37.479 216.535,37.671 216.790,37.671 217.110 C 37.671 217.490,37.862 217.685,38.237 217.685 C 38.622 217.685,38.750 217.823,38.637 218.116 C 38.523 218.416,38.657 218.548,39.078 218.548 C 39.492 218.548,39.684 218.730,39.684 219.123 C 39.684 219.442,39.875 219.698,40.115 219.698 C 40.352 219.698,40.546 219.892,40.546 220.129 C 40.546 220.369,40.802 220.561,41.121 220.561 C 41.441 220.561,41.697 220.752,41.697 220.992 C 41.697 221.229,41.891 221.423,42.128 221.423 C 42.368 221.423,42.559 221.679,42.559 221.999 C 42.559 222.379,42.751 222.574,43.125 222.574 C 43.510 222.574,43.639 222.712,43.526 223.005 C 43.411 223.304,43.546 223.436,43.966 223.436 C 44.381 223.436,44.572 223.618,44.572 224.012 C 44.572 224.331,44.764 224.587,45.004 224.587 C 45.241 224.587,45.435 224.781,45.435 225.018 C 45.435 225.258,45.691 225.449,46.010 225.449 C 46.330 225.449,46.585 225.641,46.585 225.881 C 46.585 226.118,46.779 226.312,47.017 226.312 C 47.256 226.312,47.448 226.568,47.448 226.887 C 47.448 227.267,47.640 227.462,48.014 227.462 C 48.399 227.462,48.527 227.600,48.415 227.894 C 48.300 228.193,48.435 228.325,48.855 228.325 C 49.269 228.325,49.461 228.507,49.461 228.900 C 49.461 229.220,49.653 229.475,49.892 229.475 C 50.129 229.475,50.324 229.669,50.324 229.907 C 50.324 230.146,50.579 230.338,50.899 230.338 C 51.218 230.338,51.474 230.530,51.474 230.769 C 51.474 231.006,51.668 231.201,51.905 231.201 C 52.145 231.201,52.336 231.456,52.336 231.776 C 52.336 232.156,52.528 232.351,52.903 232.351 C 53.288 232.351,53.416 232.489,53.303 232.782 C 53.188 233.081,53.323 233.214,53.743 233.214 C 54.158 233.214,54.349 233.395,54.349 233.789 C 54.349 234.108,54.541 234.364,54.781 234.364 C 55.018 234.364,55.212 234.558,55.212 234.795 C 55.212 235.035,55.468 235.226,55.787 235.226 C 56.107 235.226,56.362 235.418,56.362 235.658 C 56.362 235.895,56.556 236.089,56.794 236.089 C 57.033 236.089,57.225 236.345,57.225 236.664 C 57.225 237.045,57.417 237.239,57.791 237.239 C 58.176 237.239,58.304 237.377,58.192 237.671 C 58.077 237.970,58.212 238.102,58.632 238.102 C 59.046 238.102,59.238 238.284,59.238 238.677 C 59.238 238.997,59.430 239.252,59.669 239.252 C 59.907 239.252,60.101 239.446,60.101 239.684 C 60.101 239.923,60.356 240.115,60.676 240.115 C 60.995 240.115,61.251 240.307,61.251 240.546 C 61.251 240.784,61.445 240.978,61.682 240.978 C 61.922 240.978,62.114 241.233,62.114 241.553 C 62.114 241.933,62.305 242.128,62.680 242.128 C 63.065 242.128,63.193 242.266,63.080 242.559 C 62.965 242.859,63.100 242.991,63.521 242.991 C 63.935 242.991,64.127 243.173,64.127 243.566 C 64.127 243.885,64.318 244.141,64.558 244.141 C 64.795 244.141,64.989 244.335,64.989 244.572 C 64.989 244.812,65.245 245.004,65.564 245.004 C 65.884 245.004,66.139 245.195,66.139 245.435 C 66.139 245.672,66.334 245.866,66.571 245.866 C 66.810 245.866,67.002 246.122,67.002 246.441 C 67.002 246.822,67.194 247.017,67.568 247.017 C 67.953 247.017,68.081 247.154,67.969 247.448 C 67.854 247.747,67.989 247.879,68.409 247.879 C 68.823 247.879,69.015 248.061,69.015 248.454 C 69.015 248.774,69.207 249.029,69.446 249.029 C 69.684 249.029,69.878 249.224,69.878 249.461 C 69.878 249.700,70.133 249.892,70.453 249.892 C 70.772 249.892,71.028 250.084,71.028 250.324 C 71.028 250.561,71.222 250.755,71.459 250.755 C 71.699 250.755,71.891 251.010,71.891 251.330 C 71.891 251.710,72.082 251.905,72.457 251.905 C 72.842 251.905,72.970 252.043,72.857 252.336 C 72.743 252.636,72.877 252.768,73.298 252.768 C 73.712 252.768,73.904 252.950,73.904 253.343 C 73.904 253.662,74.095 253.918,74.335 253.918 C 74.572 253.918,74.766 254.112,74.766 254.349 C 74.766 254.589,75.022 254.781,75.341 254.781 C 75.661 254.781,75.917 254.972,75.917 255.212 C 75.917 255.449,76.111 255.643,76.348 255.643 C 76.588 255.643,76.779 255.899,76.779 256.219 C 76.779 256.538,76.971 256.794,77.211 256.794 C 77.448 256.794,77.642 256.988,77.642 257.225 C 77.642 257.465,77.898 257.656,78.217 257.656 C 78.601 257.656,78.792 257.848,78.792 258.231 C 78.792 258.551,78.984 258.807,79.224 258.807 C 79.461 258.807,79.655 259.001,79.655 259.238 C 79.655 259.478,79.911 259.669,80.230 259.669 C 80.550 259.669,80.805 259.861,80.805 260.101 C 80.805 260.338,80.999 260.532,81.237 260.532 C 81.476 260.532,81.668 260.788,81.668 261.107 C 81.668 261.427,81.860 261.682,82.099 261.682 C 82.336 261.682,82.531 261.876,82.531 262.114 C 82.531 262.353,82.786 262.545,83.106 262.545 C 83.489 262.545,83.681 262.737,83.681 263.120 C 83.681 263.440,83.873 263.695,84.112 263.695 C 84.349 263.695,84.543 263.889,84.543 264.127 C 84.543 264.366,84.799 264.558,85.119 264.558 C 85.438 264.558,85.694 264.750,85.694 264.989 C 85.694 265.226,85.888 265.421,86.125 265.421 C 86.365 265.421,86.556 265.676,86.556 265.996 C 86.556 266.315,86.748 266.571,86.988 266.571 C 87.225 266.571,87.419 266.765,87.419 267.002 C 87.419 267.242,87.675 267.434,87.994 267.434 C 88.378 267.434,88.569 267.625,88.569 268.009 C 88.569 268.328,88.761 268.584,89.001 268.584 C 89.238 268.584,89.432 268.778,89.432 269.015 C 89.432 269.255,89.688 269.446,90.007 269.446 C 90.327 269.446,90.582 269.638,90.582 269.878 C 90.582 270.115,90.776 270.309,91.014 270.309 C 91.253 270.309,91.445 270.565,91.445 270.884 C 91.445 271.204,91.637 271.459,91.876 271.459 C 92.114 271.459,92.308 271.653,92.308 271.891 C 92.308 272.130,92.563 272.322,92.883 272.322 C 93.266 272.322,93.458 272.514,93.458 272.897 C 93.458 273.217,93.650 273.472,93.889 273.472 C 94.127 273.472,94.321 273.666,94.321 273.904 C 94.321 274.143,94.576 274.335,94.896 274.335 C 95.215 274.335,95.471 274.527,95.471 274.766 C 95.471 275.004,95.665 275.198,95.902 275.198 C 96.142 275.198,96.334 275.453,96.334 275.773 C 96.334 276.092,96.525 276.348,96.765 276.348 C 97.002 276.348,97.196 276.542,97.196 276.779 C 97.196 277.019,97.452 277.211,97.771 277.211 C 98.155 277.211,98.347 277.402,98.347 277.786 C 98.347 278.105,98.538 278.361,98.778 278.361 C 99.015 278.361,99.209 278.555,99.209 278.792 C 99.209 279.032,99.465 279.224,99.784 279.224 C 100.104 279.224,100.359 279.415,100.359 279.655 C 100.359 279.892,100.554 280.086,100.791 280.086 C 101.030 280.086,101.222 280.342,101.222 280.661 C 101.222 280.981,101.414 281.237,101.653 281.237 C 101.891 281.237,102.085 281.431,102.085 281.668 C 102.085 281.908,102.340 282.099,102.660 282.099 C 103.043 282.099,103.235 282.291,103.235 282.674 C 103.235 282.994,103.427 283.249,103.666 283.249 C 103.904 283.249,104.098 283.444,104.098 283.681 C 104.098 283.920,104.353 284.112,104.673 284.112 C 104.992 284.112,105.248 284.304,105.248 284.543 C 105.248 284.781,105.442 284.975,105.679 284.975 C 105.919 284.975,106.111 285.230,106.111 285.550 C 106.111 285.869,106.302 286.125,106.542 286.125 C 106.779 286.125,106.973 286.319,106.973 286.556 C 106.973 286.796,107.229 286.988,107.549 286.988 C 107.865 286.988,108.124 287.117,108.124 287.275 C 108.124 287.463,112.868 287.563,121.783 287.563 C 130.697 287.563,135.442 287.463,135.442 287.275 C 135.442 287.117,135.636 286.988,135.873 286.988 C 136.111 286.988,136.305 286.794,136.305 286.556 C 136.305 286.317,136.560 286.125,136.880 286.125 C 137.263 286.125,137.455 285.933,137.455 285.550 C 137.455 285.230,137.647 284.975,137.886 284.975 C 138.124 284.975,138.318 284.781,138.318 284.543 C 138.318 284.304,138.573 284.112,138.893 284.112 C 139.212 284.112,139.468 283.920,139.468 283.681 C 139.468 283.444,139.662 283.249,139.899 283.249 C 140.139 283.249,140.331 282.994,140.331 282.674 C 140.331 282.355,140.522 282.099,140.762 282.099 C 140.999 282.099,141.193 281.905,141.193 281.668 C 141.193 281.428,141.449 281.237,141.769 281.237 C 142.152 281.237,142.344 281.045,142.344 280.661 C 142.344 280.342,142.535 280.086,142.775 280.086 C 143.012 280.086,143.206 279.892,143.206 279.655 C 143.206 279.415,143.462 279.224,143.781 279.224 C 144.101 279.224,144.357 279.032,144.357 278.792 C 144.357 278.555,144.551 278.361,144.788 278.361 C 145.028 278.361,145.219 278.105,145.219 277.786 C 145.219 277.466,145.411 277.211,145.651 277.211 C 145.888 277.211,146.082 277.017,146.082 276.779 C 146.082 276.540,146.338 276.348,146.657 276.348 C 147.040 276.348,147.232 276.156,147.232 275.773 C 147.232 275.453,147.424 275.198,147.664 275.198 C 147.901 275.198,148.095 275.004,148.095 274.766 C 148.095 274.527,148.351 274.335,148.670 274.335 C 148.990 274.335,149.245 274.143,149.245 273.904 C 149.245 273.666,149.439 273.472,149.676 273.472 C 149.916 273.472,150.108 273.217,150.108 272.897 C 150.108 272.578,150.300 272.322,150.539 272.322 C 150.776 272.322,150.971 272.128,150.971 271.891 C 150.971 271.651,151.226 271.459,151.546 271.459 C 151.929 271.459,152.121 271.268,152.121 270.884 C 152.121 270.565,152.312 270.309,152.552 270.309 C 152.789 270.309,152.983 270.115,152.983 269.878 C 152.983 269.638,153.239 269.446,153.559 269.446 C 153.878 269.446,154.134 269.255,154.134 269.015 C 154.134 268.778,154.328 268.584,154.565 268.584 C 154.805 268.584,154.996 268.328,154.996 268.009 C 154.996 267.689,155.188 267.434,155.428 267.434 C 155.665 267.434,155.859 267.239,155.859 267.002 C 155.859 266.763,156.115 266.571,156.434 266.571 C 156.818 266.571,157.009 266.379,157.009 265.996 C 157.009 265.676,157.201 265.421,157.441 265.421 C 157.678 265.421,157.872 265.226,157.872 264.989 C 157.872 264.750,158.128 264.558,158.447 264.558 C 158.767 264.558,159.022 264.366,159.022 264.127 C 159.022 263.889,159.216 263.695,159.454 263.695 C 159.693 263.695,159.885 263.440,159.885 263.120 C 159.885 262.801,160.077 262.545,160.316 262.545 C 160.554 262.545,160.748 262.351,160.748 262.114 C 160.748 261.874,161.003 261.682,161.323 261.682 C 161.706 261.682,161.898 261.491,161.898 261.107 C 161.898 260.788,162.090 260.532,162.329 260.532 C 162.566 260.532,162.761 260.338,162.761 260.101 C 162.761 259.861,163.016 259.669,163.336 259.669 C 163.655 259.669,163.911 259.478,163.911 259.238 C 163.911 259.001,164.105 258.807,164.342 258.807 C 164.582 258.807,164.774 258.551,164.774 258.231 C 164.774 257.912,164.965 257.656,165.205 257.656 C 165.442 257.656,165.636 257.462,165.636 257.225 C 165.636 256.985,165.892 256.794,166.211 256.794 C 166.595 256.794,166.786 256.602,166.786 256.219 C 166.786 255.899,166.978 255.643,167.218 255.643 C 167.455 255.643,167.649 255.449,167.649 255.212 C 167.649 254.972,167.905 254.781,168.224 254.781 C 168.544 254.781,168.799 254.589,168.799 254.349 C 168.799 254.112,168.994 253.918,169.231 253.918 C 169.470 253.918,169.662 253.662,169.662 253.343 C 169.662 253.023,169.854 252.768,170.093 252.768 C 170.331 252.768,170.525 252.574,170.525 252.336 C 170.525 252.097,170.780 251.905,171.100 251.905 C 171.483 251.905,171.675 251.713,171.675 251.330 C 171.675 251.010,171.867 250.755,172.106 250.755 C 172.344 250.755,172.538 250.561,172.538 250.324 C 172.538 250.084,172.793 249.892,173.113 249.892 C 173.432 249.892,173.688 249.700,173.688 249.461 C 173.688 249.224,173.882 249.029,174.119 249.029 C 174.359 249.029,174.551 248.774,174.551 248.454 C 174.551 248.135,174.742 247.879,174.982 247.879 C 175.219 247.879,175.413 247.685,175.413 247.448 C 175.413 247.208,175.669 247.017,175.988 247.017 C 176.372 247.017,176.564 246.825,176.564 246.441 C 176.564 246.122,176.755 245.866,176.995 245.866 C 177.232 245.866,177.426 245.672,177.426 245.435 C 177.426 245.195,177.682 245.004,178.001 245.004 C 178.321 245.004,178.577 244.812,178.577 244.572 C 178.577 244.335,178.771 244.141,179.008 244.141 C 179.248 244.141,179.439 243.885,179.439 243.566 C 179.439 243.246,179.631 242.991,179.871 242.991 C 180.108 242.991,180.302 242.797,180.302 242.559 C 180.302 242.320,180.558 242.128,180.877 242.128 C 181.260 242.128,181.452 241.936,181.452 241.553 C 181.452 241.233,181.644 240.978,181.884 240.978 C 182.121 240.978,182.315 240.784,182.315 240.546 C 182.315 240.307,182.570 240.115,182.890 240.115 C 183.210 240.115,183.465 239.923,183.465 239.684 C 183.465 239.446,183.659 239.252,183.896 239.252 C 184.136 239.252,184.328 238.997,184.328 238.677 C 184.328 238.358,184.520 238.102,184.759 238.102 C 184.996 238.102,185.191 237.908,185.191 237.671 C 185.191 237.431,185.446 237.239,185.766 237.239 C 186.149 237.239,186.341 237.048,186.341 236.664 C 186.341 236.345,186.532 236.089,186.772 236.089 C 187.009 236.089,187.203 235.895,187.203 235.658 C 187.203 235.418,187.459 235.226,187.779 235.226 C 188.098 235.226,188.354 235.035,188.354 234.795 C 188.354 234.558,188.548 234.364,188.785 234.364 C 189.025 234.364,189.216 234.108,189.216 233.789 C 189.216 233.469,189.408 233.214,189.648 233.214 C 189.885 233.214,190.079 233.019,190.079 232.782 C 190.079 232.543,190.335 232.351,190.654 232.351 C 191.038 232.351,191.229 232.159,191.229 231.776 C 191.229 231.456,191.421 231.201,191.661 231.201 C 191.898 231.201,192.092 231.006,192.092 230.769 C 192.092 230.530,192.348 230.338,192.667 230.338 C 192.987 230.338,193.242 230.146,193.242 229.907 C 193.242 229.669,193.436 229.475,193.674 229.475 C 193.913 229.475,194.105 229.220,194.105 228.900 C 194.105 228.581,194.297 228.325,194.536 228.325 C 194.774 228.325,194.968 228.131,194.968 227.894 C 194.968 227.654,195.223 227.462,195.543 227.462 C 195.926 227.462,196.118 227.271,196.118 226.887 C 196.118 226.568,196.310 226.312,196.549 226.312 C 196.786 226.312,196.981 226.118,196.981 225.881 C 196.981 225.641,197.236 225.449,197.556 225.449 C 197.875 225.449,198.131 225.258,198.131 225.018 C 198.131 224.781,198.325 224.587,198.562 224.587 C 198.802 224.587,198.994 224.331,198.994 224.012 C 198.994 223.628,199.185 223.436,199.569 223.436 C 199.888 223.436,200.144 223.245,200.144 223.005 C 200.144 222.768,200.338 222.574,200.575 222.574 C 200.815 222.574,201.006 222.318,201.006 221.999 C 201.006 221.679,201.198 221.423,201.438 221.423 C 201.675 221.423,201.869 221.229,201.869 220.992 C 201.869 220.752,202.125 220.561,202.444 220.561 C 202.764 220.561,203.019 220.369,203.019 220.129 C 203.019 219.892,203.214 219.698,203.451 219.698 C 203.690 219.698,203.882 219.442,203.882 219.123 C 203.882 218.740,204.074 218.548,204.457 218.548 C 204.777 218.548,205.032 218.356,205.032 218.116 C 205.032 217.879,205.226 217.685,205.464 217.685 C 205.703 217.685,205.895 217.430,205.895 217.110 C 205.895 216.790,206.087 216.535,206.326 216.535 C 206.564 216.535,206.758 216.341,206.758 216.104 C 206.758 215.864,207.013 215.672,207.333 215.672 C 207.652 215.672,207.908 215.480,207.908 215.241 C 207.908 215.004,208.102 214.809,208.339 214.809 C 208.579 214.809,208.771 214.554,208.771 214.234 C 208.771 213.851,208.962 213.659,209.346 213.659 C 209.665 213.659,209.921 213.468,209.921 213.228 C 209.921 212.991,210.115 212.797,210.352 212.797 C 210.592 212.797,210.784 212.541,210.784 212.221 C 210.784 211.902,210.975 211.646,211.215 211.646 C 211.452 211.646,211.646 211.452,211.646 211.215 C 211.646 210.975,211.902 210.784,212.221 210.784 C 212.541 210.784,212.797 210.592,212.797 210.352 C 212.797 210.115,212.991 209.921,213.228 209.921 C 213.468 209.921,213.659 209.665,213.659 209.346 C 213.659 208.962,213.851 208.771,214.234 208.771 C 214.554 208.771,214.809 208.579,214.809 208.339 C 214.809 208.102,215.004 207.908,215.241 207.908 C 215.480 207.908,215.672 207.652,215.672 207.333 C 215.672 207.013,215.864 206.758,216.104 206.758 C 216.341 206.758,216.535 206.564,216.535 206.326 C 216.535 206.087,216.790 205.895,217.110 205.895 C 217.430 205.895,217.685 205.703,217.685 205.464 C 217.685 205.226,217.879 205.032,218.116 205.032 C 218.356 205.032,218.548 204.777,218.548 204.457 C 218.548 204.074,218.740 203.882,219.123 203.882 C 219.442 203.882,219.698 203.690,219.698 203.451 C 219.698 203.214,219.892 203.019,220.129 203.019 C 220.369 203.019,220.561 202.764,220.561 202.444 C 220.561 202.125,220.752 201.869,220.992 201.869 C 221.229 201.869,221.423 201.675,221.423 201.438 C 221.423 201.198,221.679 201.006,221.999 201.006 C 222.318 201.006,222.574 200.815,222.574 200.575 C 222.574 200.338,222.768 200.144,223.005 200.144 C 223.245 200.144,223.436 199.888,223.436 199.569 C 223.436 199.185,223.628 198.994,224.012 198.994 C 224.331 198.994,224.587 198.802,224.587 198.562 C 224.587 198.325,224.781 198.131,225.018 198.131 C 225.258 198.131,225.449 197.875,225.449 197.556 C 225.449 197.236,225.641 196.981,225.881 196.981 C 226.118 196.981,226.312 196.786,226.312 196.549 C 226.312 196.310,226.568 196.118,226.887 196.118 C 227.207 196.118,227.462 195.926,227.462 195.687 C 227.462 195.449,227.656 195.255,227.894 195.255 C 228.133 195.255,228.325 195.000,228.325 194.680 C 228.325 194.297,228.517 194.105,228.900 194.105 C 229.220 194.105,229.475 193.913,229.475 193.674 C 229.475 193.436,229.669 193.242,229.907 193.242 C 230.146 193.242,230.338 192.987,230.338 192.667 C 230.338 192.348,230.530 192.092,230.769 192.092 C 231.006 192.092,231.201 191.898,231.201 191.661 C 231.201 191.421,231.456 191.229,231.776 191.229 C 232.095 191.229,232.351 191.038,232.351 190.798 C 232.351 190.561,232.545 190.367,232.782 190.367 C 233.022 190.367,233.214 190.111,233.214 189.792 C 233.214 189.408,233.405 189.216,233.789 189.216 C 234.108 189.216,234.364 189.025,234.364 188.785 C 234.364 188.548,234.558 188.354,234.795 188.354 C 235.035 188.354,235.226 188.098,235.226 187.779 C 235.226 187.459,235.418 187.203,235.658 187.203 C 235.895 187.203,236.089 187.009,236.089 186.772 C 236.089 186.532,236.345 186.341,236.664 186.341 C 236.984 186.341,237.239 186.149,237.239 185.909 C 237.239 185.672,237.434 185.478,237.671 185.478 C 237.910 185.478,238.102 185.222,238.102 184.903 C 238.102 184.520,238.294 184.328,238.677 184.328 C 238.997 184.328,239.252 184.136,239.252 183.896 C 239.252 183.659,239.446 183.465,239.684 183.465 C 239.923 183.465,240.115 183.210,240.115 182.890 C 240.115 182.570,240.307 182.315,240.546 182.315 C 240.784 182.315,240.978 182.121,240.978 181.884 C 240.978 181.644,241.233 181.452,241.553 181.452 C 241.872 181.452,242.128 181.260,242.128 181.021 C 242.128 180.784,242.322 180.590,242.559 180.590 C 242.799 180.590,242.991 180.334,242.991 180.014 C 242.991 179.631,243.182 179.439,243.566 179.439 C 243.885 179.439,244.141 179.248,244.141 179.008 C 244.141 178.771,244.335 178.577,244.572 178.577 C 244.812 178.577,245.004 178.321,245.004 178.001 C 245.004 177.682,245.195 177.426,245.435 177.426 C 245.672 177.426,245.866 177.232,245.866 176.995 C 245.866 176.755,246.122 176.564,246.441 176.564 C 246.761 176.564,247.017 176.372,247.017 176.132 C 247.017 175.895,247.211 175.701,247.448 175.701 C 247.688 175.701,247.879 175.445,247.879 175.126 C 247.879 174.742,248.071 174.551,248.454 174.551 C 248.774 174.551,249.029 174.359,249.029 174.119 C 249.029 173.882,249.224 173.688,249.461 173.688 C 249.700 173.688,249.892 173.432,249.892 173.113 C 249.892 172.793,250.084 172.538,250.324 172.538 C 250.561 172.538,250.755 172.344,250.755 172.106 C 250.755 171.867,251.010 171.675,251.330 171.675 C 251.649 171.675,251.905 171.483,251.905 171.244 C 251.905 171.006,252.099 170.812,252.336 170.812 C 252.576 170.812,252.768 170.557,252.768 170.237 C 252.768 169.854,252.960 169.662,253.343 169.662 C 253.662 169.662,253.918 169.470,253.918 169.231 C 253.918 168.994,254.112 168.799,254.349 168.799 C 254.589 168.799,254.781 168.544,254.781 168.224 C 254.781 167.905,254.972 167.649,255.212 167.649 C 255.449 167.649,255.643 167.455,255.643 167.218 C 255.643 166.978,255.899 166.786,256.219 166.786 C 256.538 166.786,256.794 166.595,256.794 166.355 C 256.794 166.118,256.988 165.924,257.225 165.924 C 257.465 165.924,257.656 165.668,257.656 165.349 C 257.656 164.965,257.848 164.774,258.231 164.774 C 258.551 164.774,258.807 164.582,258.807 164.342 C 258.807 164.105,259.001 163.911,259.238 163.911 C 259.478 163.911,259.669 163.655,259.669 163.336 C 259.669 163.016,259.861 162.761,260.101 162.761 C 260.338 162.761,260.532 162.566,260.532 162.329 C 260.532 162.090,260.788 161.898,261.107 161.898 C 261.427 161.898,261.682 161.706,261.682 161.467 C 261.682 161.229,261.876 161.035,262.114 161.035 C 262.353 161.035,262.545 160.780,262.545 160.460 C 262.545 160.077,262.737 159.885,263.120 159.885 C 263.440 159.885,263.695 159.693,263.695 159.454 C 263.695 159.216,263.889 159.022,264.127 159.022 C 264.366 159.022,264.558 158.767,264.558 158.447 C 264.558 158.128,264.750 157.872,264.989 157.872 C 265.226 157.872,265.421 157.678,265.421 157.441 C 265.421 157.201,265.676 157.009,265.996 157.009 C 266.315 157.009,266.571 156.818,266.571 156.578 C 266.571 156.341,266.765 156.147,267.002 156.147 C 267.242 156.147,267.434 155.891,267.434 155.572 C 267.434 155.188,267.625 154.996,268.009 154.996 C 268.328 154.996,268.584 154.805,268.584 154.565 C 268.584 154.328,268.778 154.134,269.015 154.134 C 269.255 154.134,269.446 153.878,269.446 153.559 C 269.446 153.239,269.638 152.983,269.878 152.983 C 270.115 152.983,270.309 152.789,270.309 152.552 C 270.309 152.312,270.565 152.121,270.884 152.121 C 271.204 152.121,271.459 151.929,271.459 151.689 C 271.459 151.452,271.653 151.258,271.891 151.258 C 272.130 151.258,272.322 151.002,272.322 150.683 C 272.322 150.300,272.514 150.108,272.897 150.108 C 273.217 150.108,273.472 149.916,273.472 149.676 C 273.472 149.439,273.666 149.245,273.904 149.245 C 274.143 149.245,274.335 148.990,274.335 148.670 C 274.335 148.351,274.527 148.095,274.766 148.095 C 275.004 148.095,275.198 147.901,275.198 147.664 C 275.198 147.424,275.453 147.232,275.773 147.232 C 276.092 147.232,276.348 147.040,276.348 146.801 C 276.348 146.564,276.542 146.370,276.779 146.370 C 277.019 146.370,277.211 146.114,277.211 145.794 C 277.211 145.411,277.402 145.219,277.786 145.219 C 278.105 145.219,278.361 145.028,278.361 144.788 C 278.361 144.551,278.555 144.357,278.792 144.357 C 279.032 144.357,279.224 144.101,279.224 143.781 C 279.224 143.462,279.415 143.206,279.655 143.206 C 279.892 143.206,280.086 143.012,280.086 142.775 C 280.086 142.535,280.342 142.344,280.661 142.344 C 281.045 142.344,281.237 142.152,281.237 141.769 C 281.237 141.449,281.428 141.193,281.668 141.193 C 281.905 141.193,282.099 140.999,282.099 140.762 C 282.099 140.522,282.355 140.331,282.674 140.331 C 282.994 140.331,283.249 140.139,283.249 139.899 C 283.249 139.662,283.444 139.468,283.681 139.468 C 283.920 139.468,284.112 139.212,284.112 138.893 C 284.112 138.573,284.304 138.318,284.543 138.318 C 284.781 138.318,284.975 138.124,284.975 137.886 C 284.975 137.647,285.230 137.455,285.550 137.455 C 285.933 137.455,286.125 137.263,286.125 136.880 C 286.125 136.560,286.317 136.305,286.556 136.305 C 286.794 136.305,286.988 136.111,286.988 135.873 C 286.988 135.634,287.243 135.442,287.563 135.442 C 287.882 135.442,288.138 135.250,288.138 135.011 C 288.138 134.774,288.332 134.579,288.569 134.579 C 288.809 134.579,289.001 134.324,289.001 134.004 C 289.001 133.685,289.192 133.429,289.432 133.429 C 289.669 133.429,289.863 133.235,289.863 132.998 C 289.863 132.758,290.119 132.566,290.439 132.566 C 290.822 132.566,291.014 132.375,291.014 131.991 C 291.014 131.672,291.205 131.416,291.445 131.416 C 291.682 131.416,291.876 131.222,291.876 130.985 C 291.876 130.745,292.132 130.554,292.451 130.554 C 292.771 130.554,293.027 130.362,293.027 130.122 C 293.027 129.885,293.221 129.691,293.458 129.691 C 293.698 129.691,293.889 129.435,293.889 129.116 C 293.889 128.796,294.081 128.541,294.321 128.541 C 294.558 128.541,294.752 128.347,294.752 128.109 C 294.752 127.870,295.008 127.678,295.327 127.678 C 295.711 127.678,295.902 127.486,295.902 127.103 C 295.902 126.783,296.094 126.528,296.334 126.528 C 296.571 126.528,296.765 126.334,296.765 126.096 C 296.765 125.857,297.021 125.665,297.340 125.665 C 297.660 125.665,297.915 125.473,297.915 125.234 C 297.915 124.996,298.109 124.802,298.347 124.802 C 298.586 124.802,298.778 124.547,298.778 124.227 C 298.778 123.908,298.970 123.652,299.209 123.652 C 299.446 123.652,299.641 123.458,299.641 123.221 C 299.641 122.981,299.896 122.789,300.216 122.789 C 300.599 122.789,300.791 122.598,300.791 122.214 C 300.791 121.895,300.983 121.639,301.222 121.639 C 301.459 121.639,301.653 121.445,301.653 121.208 C 301.653 120.968,301.909 120.776,302.229 120.776 C 302.548 120.776,302.804 120.585,302.804 120.345 C 302.804 120.108,302.998 119.914,303.235 119.914 C 303.475 119.914,303.666 119.658,303.666 119.339 C 303.666 119.019,303.858 118.763,304.098 118.763 C 304.335 118.763,304.529 118.569,304.529 118.332 C 304.529 118.092,304.785 117.901,305.104 117.901 C 305.488 117.901,305.679 117.709,305.679 117.326 C 305.679 117.006,305.871 116.751,306.111 116.751 C 306.348 116.751,306.542 116.556,306.542 116.319 C 306.542 116.080,306.798 115.888,307.117 115.888 C 307.437 115.888,307.692 115.696,307.692 115.457 C 307.692 115.219,307.886 115.025,308.124 115.025 C 308.363 115.025,308.555 114.770,308.555 114.450 C 308.555 114.131,308.747 113.875,308.986 113.875 C 309.224 113.875,309.418 113.681,309.418 113.444 C 309.418 113.204,309.673 113.012,309.993 113.012 C 310.376 113.012,310.568 112.821,310.568 112.437 C 310.568 112.118,310.760 111.862,310.999 111.862 C 311.237 111.862,311.431 111.668,311.431 111.431 C 311.431 111.191,311.686 110.999,312.006 110.999 C 312.325 110.999,312.581 110.808,312.581 110.568 C 312.581 110.331,312.775 110.137,313.012 110.137 C 313.252 110.137,313.444 109.881,313.444 109.561 C 313.444 109.242,313.635 108.986,313.875 108.986 C 314.112 108.986,314.306 108.792,314.306 108.555 C 314.306 108.315,314.562 108.124,314.881 108.124 C 315.265 108.124,315.457 107.932,315.457 107.549 C 315.457 107.229,315.648 106.973,315.888 106.973 C 316.125 106.973,316.319 106.779,316.319 106.542 C 316.319 106.302,316.575 106.111,316.894 106.111 C 317.214 106.111,317.469 105.919,317.469 105.679 C 317.469 105.442,317.664 105.248,317.901 105.248 C 318.140 105.248,318.332 104.992,318.332 104.673 C 318.332 104.353,318.524 104.098,318.763 104.098 C 319.001 104.098,319.195 103.904,319.195 103.666 C 319.195 103.427,319.450 103.235,319.770 103.235 C 320.153 103.235,320.345 103.043,320.345 102.660 C 320.345 102.340,320.537 102.085,320.776 102.085 C 321.014 102.085,321.208 101.891,321.208 101.653 C 321.208 101.414,321.463 101.222,321.783 101.222 C 322.102 101.222,322.358 101.030,322.358 100.791 C 322.358 100.554,322.552 100.359,322.789 100.359 C 323.029 100.359,323.221 100.104,323.221 99.784 C 323.221 99.465,323.412 99.209,323.652 99.209 C 323.889 99.209,324.083 99.015,324.083 98.778 C 324.083 98.538,324.339 98.347,324.659 98.347 C 325.042 98.347,325.234 98.155,325.234 97.771 C 325.234 97.452,325.425 97.196,325.665 97.196 C 325.902 97.196,326.096 97.002,326.096 96.765 C 326.096 96.525,326.352 96.334,326.671 96.334 C 326.991 96.334,327.247 96.142,327.247 95.902 C 327.247 95.665,327.441 95.471,327.678 95.471 C 327.918 95.471,328.109 95.215,328.109 94.896 C 328.109 94.576,328.301 94.321,328.541 94.321 C 328.778 94.321,328.972 94.127,328.972 93.889 C 328.972 93.650,329.228 93.458,329.547 93.458 C 329.931 93.458,330.122 93.266,330.122 92.883 C 330.122 92.563,330.314 92.308,330.554 92.308 C 330.791 92.308,330.985 92.114,330.985 91.876 C 330.985 91.637,331.241 91.445,331.560 91.445 C 331.880 91.445,332.135 91.253,332.135 91.014 C 332.135 90.776,332.329 90.582,332.566 90.582 C 332.806 90.582,332.998 90.327,332.998 90.007 C 332.998 89.688,333.190 89.432,333.429 89.432 C 333.666 89.432,333.861 89.238,333.861 89.001 C 333.861 88.761,334.116 88.569,334.436 88.569 C 334.901 88.569,335.011 88.378,335.011 87.563 C 335.011 86.860,335.141 86.556,335.442 86.556 C 335.679 86.556,335.873 86.362,335.873 86.125 C 335.873 85.888,336.080 85.694,336.332 85.694 C 336.584 85.694,336.858 85.435,336.940 85.119 C 337.023 84.802,337.270 84.543,337.489 84.543 C 337.707 84.543,337.886 84.349,337.886 84.112 C 337.886 83.875,338.081 83.681,338.318 83.681 C 338.557 83.681,338.749 83.425,338.749 83.106 C 338.749 82.722,338.941 82.531,339.324 82.531 C 339.644 82.531,339.899 82.339,339.899 82.099 C 339.899 81.862,340.093 81.668,340.331 81.668 C 340.568 81.668,340.762 81.474,340.762 81.237 C 340.762 80.999,340.968 80.805,341.220 80.805 C 341.472 80.805,341.746 80.546,341.829 80.230 C 341.912 79.914,342.158 79.655,342.377 79.655 C 342.596 79.655,342.775 79.461,342.775 79.224 C 342.775 78.986,342.969 78.792,343.206 78.792 C 343.446 78.792,343.638 78.537,343.638 78.217 C 343.638 77.834,343.829 77.642,344.213 77.642 C 344.532 77.642,344.788 77.450,344.788 77.211 C 344.788 76.973,344.982 76.779,345.219 76.779 C 345.457 76.779,345.651 76.585,345.651 76.348 C 345.651 76.111,345.857 75.917,346.109 75.917 C 346.361 75.917,346.635 75.658,346.718 75.341 C 346.800 75.025,347.047 74.766,347.266 74.766 C 347.485 74.766,347.664 74.572,347.664 74.335 C 347.664 74.098,347.858 73.904,348.095 73.904 C 348.335 73.904,348.526 73.648,348.526 73.329 C 348.526 72.945,348.718 72.753,349.101 72.753 C 349.421 72.753,349.676 72.562,349.676 72.322 C 349.676 72.085,349.871 71.891,350.108 71.891 C 350.345 71.891,350.539 71.697,350.539 71.459 C 350.539 71.222,350.745 71.028,350.997 71.028 C 351.249 71.028,351.523 70.769,351.606 70.453 C 351.689 70.137,351.936 69.878,352.154 69.878 C 352.373 69.878,352.552 69.684,352.552 69.446 C 352.552 69.209,352.746 69.015,352.983 69.015 C 353.223 69.015,353.415 68.759,353.415 68.440 C 353.415 68.057,353.607 67.865,353.990 67.865 C 354.309 67.865,354.565 67.673,354.565 67.434 C 354.565 67.196,354.759 67.002,354.996 67.002 C 355.234 67.002,355.428 66.808,355.428 66.571 C 355.428 66.334,355.634 66.139,355.886 66.139 C 356.138 66.139,356.412 65.881,356.495 65.564 C 356.577 65.248,356.824 64.989,357.043 64.989 C 357.262 64.989,357.441 64.795,357.441 64.558 C 357.441 64.321,357.635 64.127,357.872 64.127 C 358.112 64.127,358.303 63.871,358.303 63.551 C 358.303 63.168,358.495 62.976,358.879 62.976 C 359.198 62.976,359.454 62.785,359.454 62.545 C 359.454 62.308,359.648 62.114,359.885 62.114 C 360.122 62.114,360.316 61.919,360.316 61.682 C 360.316 61.445,360.523 61.251,360.775 61.251 C 361.027 61.251,361.301 60.992,361.383 60.676 C 361.466 60.359,361.713 60.101,361.931 60.101 C 362.150 60.101,362.329 59.907,362.329 59.669 C 362.329 59.432,362.523 59.238,362.761 59.238 C 363.000 59.238,363.192 58.982,363.192 58.663 C 363.192 58.279,363.384 58.088,363.767 58.088 C 364.087 58.088,364.342 57.896,364.342 57.656 C 364.342 57.419,364.536 57.225,364.774 57.225 C 365.011 57.225,365.205 57.046,365.205 56.827 C 365.205 56.608,365.464 56.362,365.780 56.279 C 366.096 56.196,366.355 55.922,366.355 55.670 C 366.355 55.418,366.549 55.212,366.786 55.212 C 367.024 55.212,367.218 55.018,367.218 54.781 C 367.218 54.543,367.412 54.349,367.649 54.349 C 367.889 54.349,368.081 54.094,368.081 53.774 C 368.081 53.391,368.272 53.199,368.656 53.199 C 368.975 53.199,369.231 53.007,369.231 52.768 C 369.231 52.531,369.425 52.336,369.662 52.336 C 369.899 52.336,370.093 52.157,370.093 51.939 C 370.093 51.720,370.352 51.473,370.669 51.390 C 370.985 51.308,371.244 51.034,371.244 50.782 C 371.244 50.530,371.438 50.324,371.675 50.324 C 371.912 50.324,372.106 50.129,372.106 49.892 C 372.106 49.655,372.301 49.461,372.538 49.461 C 372.777 49.461,372.969 49.205,372.969 48.886 C 372.969 48.502,373.161 48.311,373.544 48.311 C 373.864 48.311,374.119 48.119,374.119 47.879 C 374.119 47.642,374.313 47.448,374.551 47.448 C 374.788 47.448,374.982 47.269,374.982 47.050 C 374.982 46.831,375.241 46.585,375.557 46.502 C 375.873 46.419,376.132 46.145,376.132 45.893 C 376.132 45.641,376.326 45.435,376.564 45.435 C 376.801 45.435,376.995 45.241,376.995 45.004 C 376.995 44.766,377.189 44.572,377.426 44.572 C 377.666 44.572,377.858 44.317,377.858 43.997 C 377.858 43.614,378.049 43.422,378.433 43.422 C 378.752 43.422,379.008 43.230,379.008 42.991 C 379.008 42.753,379.202 42.559,379.439 42.559 C 379.676 42.559,379.871 42.380,379.871 42.162 C 379.871 41.943,380.129 41.696,380.446 41.613 C 380.762 41.531,381.021 41.257,381.021 41.005 C 381.021 40.753,381.215 40.546,381.452 40.546 C 381.689 40.546,381.884 40.352,381.884 40.115 C 381.884 39.878,382.078 39.684,382.315 39.684 C 382.555 39.684,382.746 39.428,382.746 39.109 C 382.746 38.725,382.938 38.533,383.321 38.533 C 383.641 38.533,383.896 38.342,383.896 38.102 C 383.896 37.865,384.091 37.671,384.328 37.671 C 384.565 37.671,384.759 37.492,384.759 37.273 C 384.759 37.054,385.018 36.807,385.334 36.725 C 385.651 36.642,385.909 36.368,385.909 36.116 C 385.909 35.864,386.104 35.658,386.341 35.658 C 386.578 35.658,386.772 35.464,386.772 35.226 C 386.772 34.989,386.966 34.795,387.203 34.795 C 387.443 34.795,387.635 34.539,387.635 34.220 C 387.635 33.837,387.827 33.645,388.210 33.645 C 388.529 33.645,388.785 33.453,388.785 33.214 C 388.785 32.976,388.979 32.782,389.216 32.782 C 389.454 32.782,389.648 32.603,389.648 32.384 C 389.648 32.166,389.907 31.919,390.223 31.836 C 390.539 31.753,390.798 31.480,390.798 31.227 C 390.798 30.975,390.992 30.769,391.229 30.769 C 391.467 30.769,391.661 30.575,391.661 30.338 C 391.661 30.101,391.855 29.907,392.092 29.907 C 392.332 29.907,392.523 29.651,392.523 29.331 C 392.523 28.948,392.715 28.756,393.098 28.756 C 393.418 28.756,393.674 28.565,393.674 28.325 C 393.674 28.088,393.868 27.894,394.105 27.894 C 394.342 27.894,394.536 27.715,394.536 27.496 C 394.536 27.277,394.795 27.030,395.111 26.948 C 395.428 26.865,395.687 26.591,395.687 26.339 C 395.687 26.087,395.881 25.881,396.118 25.881 C 396.355 25.881,396.549 25.687,396.549 25.449 C 396.549 25.212,396.743 25.018,396.981 25.018 C 397.220 25.018,397.412 24.762,397.412 24.443 C 397.412 24.059,397.604 23.868,397.987 23.868 C 398.307 23.868,398.562 23.676,398.562 23.436 C 398.562 23.199,398.756 23.005,398.994 23.005 C 399.231 23.005,399.425 22.811,399.425 22.574 C 399.425 22.336,399.554 22.142,399.712 22.142 C 399.886 22.142,400.000 20.944,400.000 19.123 C 400.000 17.302,399.886 16.104,399.712 16.104 C 399.554 16.104,399.425 15.645,399.425 15.084 C 399.425 14.436,399.294 14.082,399.065 14.112 C 396.402 14.458,325.234 14.021,325.234 13.659 C 325.234 13.277,318.955 13.228,270.453 13.228 C 221.951 13.228,215.672 13.277,215.672 13.659 " stroke="none" fill="#146c74" fill-rule="evenodd"></path><path id="path1" d="" stroke="none" fill="#186c74" fill-rule="evenodd"></path><path id="path2" d="" stroke="none" fill="#186c74" fill-rule="evenodd"></path><path id="path3" d="" stroke="none" fill="#186c74" fill-rule="evenodd"></path><path id="path4" d="" stroke="none" fill="#186c74" fill-rule="evenodd"></path></g></svg>